<svg xmlns="http://www.w3.org/2000/svg" width="270.652" height="55.523" viewBox="0 0 270.652 55.523">
  <g id="Group_10757" data-name="Group 10757" transform="translate(-21.929 -366.822)">
    <path id="Path_1" data-name="Path 1" d="M39.39,403.336a23.367,23.367,0,0,0,.278,3.794,9.7,9.7,0,0,0,2.352,4.933,31.888,31.888,0,0,0,4.3,3.934c1.957,1.559,2.324,3.7,2.18,6.028-.028.448-.357.3-.588.282a27.4,27.4,0,0,1-12.135-3.756c-7.736-4.649-12.473-11.424-13.619-20.4a27.638,27.638,0,0,1,20.6-30.374,28.162,28.162,0,0,1,34.32,19.349A27.766,27.766,0,0,1,56.56,421.623a35.305,35.305,0,0,1-4.264.675c-.371.038-.531-.032-.5-.438.068-.982.064-1.971.174-2.948a4.511,4.511,0,0,1,1.405-2.54,23.906,23.906,0,0,1,3.435-2.962A8.4,8.4,0,0,0,60.4,407.1c.458-5.165.477-10.319-1.1-15.343a15.442,15.442,0,0,0-3.331-6.073,7.914,7.914,0,0,0-9.208-1.993,7.481,7.481,0,0,0-3.208,2.8,23.871,23.871,0,0,0-3.247,8.18A38.669,38.669,0,0,0,39.39,403.336Z" transform="translate(0)" fill="#fe8100"/>
    <path id="Path_2" data-name="Path 2" d="M548.266,448.808c-.248-.123-.375.14-.495.312-.33.472-.62.974-.978,1.424a4.723,4.723,0,0,1-3.307,1.967c-.672.061-.864-.195-.753-.864a9.531,9.531,0,0,0,.059-2.941,2.276,2.276,0,0,0-2.169-2.037,2.673,2.673,0,0,0-2.57,1.93c-.281,1.874.025,2.647,1.561,3.87a4.905,4.905,0,0,0,1.005.557.733.733,0,0,1,.4,1.113,23.668,23.668,0,0,1-1.777,3.449,8.415,8.415,0,0,1-2.872,2.978c-.871.459-1.4.251-1.732-.662a2.964,2.964,0,0,1-.133-1.48,14.263,14.263,0,0,1,1.65-4.729,1.161,1.161,0,0,0-.046-1.516,1.478,1.478,0,0,0-1.693-.444,2.4,2.4,0,0,0-1.292,1.184,44.947,44.947,0,0,1-2.875,4.486,2.291,2.291,0,0,1-.584.629.661.661,0,0,1-.746.045.569.569,0,0,1-.206-.7,26.551,26.551,0,0,1,2.707-6.64c.438-.707.493-1.38.092-1.789a1.692,1.692,0,0,0-2.117-.209,5.243,5.243,0,0,0-1.178,1.157,16.024,16.024,0,0,1-2.386,2.4c-.189.153-.4.32-.648.169a.586.586,0,0,1-.224-.7,7.427,7.427,0,0,0,.115-2.363,3.051,3.051,0,0,0-3.539-3.088c-1.973.114-3.808,2.087-3.531,3.9a1.805,1.805,0,0,1-.428,1.578,87.524,87.524,0,0,0-5.6,7.591c-.244.361-.463,1.051-1.023.782-.493-.238-.215-.878-.136-1.326a36.858,36.858,0,0,1,1.245-4.874,16.522,16.522,0,0,1,4.305-7.54,48.7,48.7,0,0,0,8.834-11.055,8.956,8.956,0,0,0,1.22-3.131,1.641,1.641,0,0,0-1.494-1.963,3.43,3.43,0,0,0-2.325.576,14.057,14.057,0,0,0-3.2,3.192,58.394,58.394,0,0,0-7.347,13.161,7.875,7.875,0,0,1-1.457,2.939,42.684,42.684,0,0,0-5.093,6.247c-.819,1.154-1.618,2.323-2.449,3.47-.156.216-.363.524-.7.356-.317-.156-.231-.493-.218-.777a2.1,2.1,0,0,1,.049-.283,52.269,52.269,0,0,1,2.541-8.613,8.294,8.294,0,0,1,2.175-3.141,60.444,60.444,0,0,0,9.672-11.865,9.017,9.017,0,0,0,1.285-3.186,1.7,1.7,0,0,0-1.021-2,3.183,3.183,0,0,0-2.5.335,12.7,12.7,0,0,0-3.317,3.162,52.752,52.752,0,0,0-6.891,11.929,16.49,16.49,0,0,1-1.634,3.515c-1.111,1.477-2.3,2.9-3.479,4.321a7.6,7.6,0,0,1-2.511,2.125,1.731,1.731,0,0,1-1.9-.159,2.829,2.829,0,0,1-.567-2.922.979.979,0,0,1,.578-.4c.568-.192,1.145-.361,1.7-.58a5.412,5.412,0,0,0,2.423-1.75c.783-1.04.472-2.556-.6-2.841a3.758,3.758,0,0,0-2.413.079,6.38,6.38,0,0,0-3.894,4.6,7.119,7.119,0,0,1-1.162,2.575c-.449.623-.881,1.259-1.334,1.879a47.831,47.831,0,0,1-6.407,7.673c-.434.389-.91,1.005-1.54.645-.583-.333-.332-1.049-.241-1.6a53.441,53.441,0,0,1,2.3-8.9,68.581,68.581,0,0,1,5.857-12.489,3.635,3.635,0,0,1,1.747-1.522,19.16,19.16,0,0,0,9.4-8.474,4.164,4.164,0,0,0,.453-2.078,1.615,1.615,0,0,0-1.545-1.6,4.564,4.564,0,0,0-2.311.387,10.924,10.924,0,0,0-3.646,2.882,48.707,48.707,0,0,0-6.068,8.563A2.216,2.216,0,0,1,486,440.918c-4.4,1.2-8.872,2.1-13.359,2.9-.829.15-1.119-.2-.795-.959a61.121,61.121,0,0,1,6.538-12.212c.381-.524.789-1.027,1.188-1.538.177-.225.423-.44.208-.756-.193-.283-.457-.161-.715-.087a4.378,4.378,0,0,0-1.467.737,11.775,11.775,0,0,0-2.73,3.136,71.375,71.375,0,0,0-5.873,11.526,1.381,1.381,0,0,1-1.147.93c-3.532.684-7.075,1.325-10.543,2.3a32.436,32.436,0,0,0-10.887,4.92,12.556,12.556,0,0,0-5.282,10.522c0,.263-.108.678.3.684.361,0,.244-.389.274-.633a14.7,14.7,0,0,1,1.607-5.631,16.775,16.775,0,0,1,7.885-6.7,56.954,56.954,0,0,1,12.926-3.884c1.057-.219,2.119-.427,3.189-.573.749-.1.917.179.636.875-.16.4-.322.8-.467,1.207a103.277,103.277,0,0,0-3.946,14.567,4.92,4.92,0,0,0,.036,2.774c.138.365.359.737.821.684.415-.048.55-.425.639-.785q.236-.943.451-1.888a138.4,138.4,0,0,1,5.058-16.866,1.954,1.954,0,0,1,1.669-1.439,121.376,121.376,0,0,0,12.681-2.616c.255-.072.544-.169.747.062s.053.5-.035.749a2.465,2.465,0,0,1-.183.391,40.381,40.381,0,0,0-2.227,4.829,63.372,63.372,0,0,0-3.518,11.166,16.553,16.553,0,0,0-.316,4.584,1.756,1.756,0,0,0,2.612,1.631,7.121,7.121,0,0,0,2.2-1.474,26,26,0,0,0,3.172-3.538c1.286-1.737,2.612-3.443,3.736-5.295.392-.643.916-.607,1.243.065a2.745,2.745,0,0,0,.676.917,3.818,3.818,0,0,0,4.135.229,9.855,9.855,0,0,0,2.866-2.6,4.58,4.58,0,0,1,.617-.7c.164-.14.358-.392.62-.224.281.18.081.433.022.65a19.357,19.357,0,0,0-.826,4.375,4.748,4.748,0,0,0,.424,3.009,1.291,1.291,0,0,0,2.174.247,13.542,13.542,0,0,0,1.546-1.9q2.038-2.839,4.082-5.673a2.864,2.864,0,0,1,.414-.5c.192-.166.4-.438.679-.3.319.162.111.464.055.7a17.537,17.537,0,0,0-.824,4.885c.027.575.013,1.157.094,1.724a1.756,1.756,0,0,0,1.059,1.444,1.341,1.341,0,0,0,1.588-.541c.423-.49.847-.985,1.222-1.512,1.085-1.527,2.142-3.074,3.219-4.605a4.018,4.018,0,0,1,.568-.643c.159-.146.381-.274.59-.124.179.128.115.353.071.538a5.074,5.074,0,0,0-.138,1.858,2.639,2.639,0,0,0,3.026,2.564,3.55,3.55,0,0,0,2.28-1.519,12.129,12.129,0,0,0,1.688-3,1.392,1.392,0,0,1,.806-.871,5.081,5.081,0,0,0,1.566-1,5.33,5.33,0,0,1,.707-.49c.131-.072.309-.182.464-.022.128.13.039.278-.006.4-.169.474-.382.935-.526,1.415a7.165,7.165,0,0,0-.328,4.239,1.828,1.828,0,0,0,2.592,1.118,4.3,4.3,0,0,0,1.693-1.612c.234-.338.541-.867.978-.7.454.169.193.721.144,1.106a3.065,3.065,0,0,0,3.114,3.563,3.936,3.936,0,0,0,2.781-1.174,15,15,0,0,0,3.671-6.033,1.493,1.493,0,0,1,1.488-1.161,5.857,5.857,0,0,0,4.97-3.937C548.435,449.23,548.533,448.94,548.266,448.808Zm-32.354-4.251a53.958,53.958,0,0,1,7.033-11c.416-.464.864-.9,1.314-1.333.276-.264.616-.57,1-.345.433.251.127.658.017.968a17.384,17.384,0,0,1-1.985,3.656,69.318,69.318,0,0,1-6.573,8.276,1.407,1.407,0,0,1-.625.483.272.272,0,0,1-.312-.3A1,1,0,0,1,515.912,444.557Zm-8.652.368a2.063,2.063,0,0,1,.222-.6,80.921,80.921,0,0,1,4.728-8.063,25.512,25.512,0,0,1,3.335-3.865c.329-.312.718-.834,1.209-.5.508.35.048.85-.127,1.222a43.292,43.292,0,0,1-6.475,9.394q-.907,1.073-1.823,2.136a2.155,2.155,0,0,1-.795.607A.257.257,0,0,1,507.26,444.925Zm-12.539,5.588a4.673,4.673,0,0,1,2.805-1.993c.392-.088.561.162.619.525a1.467,1.467,0,0,1-.153.4,5.924,5.924,0,0,1-2.8,1.81.419.419,0,0,1-.495-.2A.446.446,0,0,1,494.72,450.512Zm-3.1-12.8c1.155-1.529,2.14-3.183,3.423-4.62a24.144,24.144,0,0,1,3.7-3.513c.232-.17.482-.359.786-.2a.535.535,0,0,1,.277.522,2.11,2.11,0,0,1-.242.847,16.4,16.4,0,0,1-5.655,6.574c-.515.389-1.059.746-1.611,1.083-.271.166-.626.459-.9.14C491.165,438.282,491.453,437.94,491.625,437.713Zm31.225,17.553a9.159,9.159,0,0,1-1.571,2.3c-.375.381-.767.77-1.37.561-.564-.195-.627-.737-.759-1.217a3.829,3.829,0,0,1-.063-.473,8.218,8.218,0,0,1,.472-1.9c.3-.684.659-.8,1.36-.5a3.9,3.9,0,0,0,1.334.226C523.055,454.324,523.2,454.577,522.85,455.266Zm1.023-2.547a.894.894,0,0,1-.835.678,4.12,4.12,0,0,1-1.907-.251c-.544-.183-.524-.581-.238-.969.413-.558.864-1.089,1.3-1.63a1.283,1.283,0,0,0,.137-1.537.923.923,0,0,0-1.54-.265c-.255.218-.5.45-.759.661a.475.475,0,0,1-.6.058c-.215-.149-.174-.384-.118-.591a3.641,3.641,0,0,1,2.462-1.807,2.457,2.457,0,0,1,2.149,1.32,3.815,3.815,0,0,1,.42,1.94A15.231,15.231,0,0,1,523.872,452.719Zm17.9-1.255c-.091.639-.451.818-1.013.539a2.672,2.672,0,0,1-.923-3.562,1.147,1.147,0,0,1,1.222-.57c.538.114.679.545.736,1.023.045.379.089.757.118,1C541.862,450.512,541.842,450.993,541.774,451.464Z" transform="translate(-358.73 -52.225)" fill="#fe8100"/>
    <path id="Path_3" data-name="Path 3" d="M1277.508,437.261a3.075,3.075,0,0,0-1.639-1.34,14.414,14.414,0,0,0-5.266-1.051,65.416,65.416,0,0,0-7.628.244c-3.9.361-7.771.887-11.66,1.311-.4.043-.9.421-1.2-.056-.262-.417.212-.733.4-1.072a1.668,1.668,0,0,0-.7-2.241c-.581-.4-1.168-.244-1.727.48a19.052,19.052,0,0,0-1.8,2.694,1.56,1.56,0,0,1-1.287.9,41.969,41.969,0,0,1-9.623.288,6.718,6.718,0,0,1-3.4-1.07,1.332,1.332,0,0,1-.356-1.956,5.336,5.336,0,0,1,.952-.974c.281-.275.531-.612.266-1.017a.861.861,0,0,0-1.027-.31,1.794,1.794,0,0,0-.753.407,3.085,3.085,0,0,0,.584,5.221,11.486,11.486,0,0,0,5.511,1.17,36.51,36.51,0,0,0,6.757-.276c.253-.046.555-.089.74.154.209.278.039.56-.1.8-1.165,2.054-1.98,4.268-2.958,6.405a45.871,45.871,0,0,1-2.054,4.91c-1.484,2.443-2.944,4.9-4.436,7.339a19.857,19.857,0,0,1-3.472,4.663c-.466.417-1.011,1.037-1.692.669s-.465-1.157-.372-1.778a10.8,10.8,0,0,1,1.315-3.787,24.57,24.57,0,0,0,1.669-3.026,3.452,3.452,0,0,0-.091-2.99,5.408,5.408,0,0,0-1.855-2.068.825.825,0,0,1-.236-1.379,3.411,3.411,0,0,0,.708-2.5,1.9,1.9,0,0,0-1.493-1.806,3.122,3.122,0,0,0-3.422,1.552c-.77,1.22-.694,2.071.358,3.333.362.436.463.813.059,1.266a38.274,38.274,0,0,0-3.875,5.716q-.978,1.6-1.992,3.172c-.151.234-.375.521-.7.386s-.241-.477-.2-.763a15.356,15.356,0,0,1,2.142-6.069c.437-.718.914-1.411,1.367-2.119a.983.983,0,0,0-.18-1.36,5.888,5.888,0,0,0-7.669-.513,39.566,39.566,0,0,0-6.508,6.3,52.117,52.117,0,0,1-5.723,6.652,13.892,13.892,0,0,1-6.571,3.41,7.027,7.027,0,0,1-6.528-2.521,10.974,10.974,0,0,1-1.673-6.738,26.628,26.628,0,0,1,2.791-10.584,28.724,28.724,0,0,1,4.036-6.375,1.836,1.836,0,0,1,1.566-.688c1.441.042,2.883.013,4.326.013a32.6,32.6,0,0,0,8.387-.563,8.516,8.516,0,0,0,5.726-3.777,2.555,2.555,0,0,0-.362-3.229,4.561,4.561,0,0,0-1.75-1.1c-3.173-1.16-6.3-.687-9.4.3a23.9,23.9,0,0,0-9.18,5.53c-.7.661-1.351,1.455-2.488,1.415a9.634,9.634,0,0,0-1.5.143,25.633,25.633,0,0,0-14.468,6.192,15.831,15.831,0,0,0-2.823,3.444c-.157.254-.315.537-.025.776s.593.105.839-.123a4.583,4.583,0,0,0,.49-.526c4.173-5.324,9.911-7.6,16.4-8.43a.533.533,0,0,1,.583.189c.146.235-.027.4-.156.576a30.6,30.6,0,0,0-5.286,11.5c-.815,3.734-.951,7.449.857,10.97a8.854,8.854,0,0,0,4.541,4.519,10.37,10.37,0,0,0,7.928-.17,18.326,18.326,0,0,0,7.824-6.17c1.411-1.825,2.76-3.7,4.252-5.455.151-.177.311-.427.581-.356.323.084.287.4.313.661.257,2.5,2.116,3.415,4.138,2.037.175-.118.352-.313.58-.195.268.138.211.412.153.643a4.4,4.4,0,0,0,.2,2.412,2.26,2.26,0,0,0,3.989.972,5.284,5.284,0,0,0,.413-.5c.913-1.21,1.654-2.533,2.461-3.813,1.01-1.607,1.974-3.242,3.109-4.767.238-.32.485-.609.945-.512a2.217,2.217,0,0,1,1.291,2.407,16.788,16.788,0,0,1-1.4,2.681,9.507,9.507,0,0,0-1.594,5.585c.17,2.223,1.84,3.858,3.838,3.564a4.913,4.913,0,0,0,2.924-1.97,31.073,31.073,0,0,0,3.518-5.175c.167-.3.376-.822.7-.7.348.131.12.639.046.974a7.307,7.307,0,0,0,.333,4.525c.687,1.613,2.616,3.19,4.662,1.292a9.244,9.244,0,0,0,.933-.894,33.1,33.1,0,0,0,3.682-5.839,30.731,30.731,0,0,1,3.731-5.893,12.033,12.033,0,0,1,1.234-1.206c.264-.234.449-.547.208-.891s-.6-.25-.907-.1a5.738,5.738,0,0,0-.731.459,8.91,8.91,0,0,0-2.126,2.328c-1.845,2.648-3.214,5.577-4.937,8.3a9.173,9.173,0,0,1-2.175,2.661c-.675.5-1.16.336-1.4-.467a2.707,2.707,0,0,1-.107-.636,11.8,11.8,0,0,1,.329-3.356c.519-2.227,1.274-4.377,1.98-6.547a77.445,77.445,0,0,1,5.763-12.949,1.865,1.865,0,0,1,1.542-1.021c3.456-.4,6.909-.842,10.363-1.252a65.768,65.768,0,0,1,11.351-.44,10.314,10.314,0,0,1,2.833.467c.92.317,1.712.674,1.6,1.865-.029.322.209.524.51.617a.725.725,0,0,0,.791-.193A1.32,1.32,0,0,0,1277.508,437.261Zm-79.386-1.232c2.841-2.348,5.885-4.321,9.6-4.987a11.653,11.653,0,0,1,4.082-.058,3.293,3.293,0,0,1,.832.218c1.35.646,1.9,1.525.731,2.856a7.349,7.349,0,0,1-3.61,2.127,23.461,23.461,0,0,1-7.455.675c-1.316,0-2.588,0-3.861,0-.238,0-.509.006-.6-.287C1197.766,436.324,1197.958,436.165,1198.121,436.029Zm18.263,18.912c-.211.258-.44.554-.844.379-.323-.14-.312-.451-.314-.743a6.209,6.209,0,0,1,4.1-5.091c.3-.066.653-.2.848.146.169.3-.084.537-.245.772C1218.852,452,1217.6,453.451,1216.384,454.941Zm12.286-6.708c-.319-.006-.806-.747-.819-1.245s.584-1.242,1.028-1.239c.552,0,.7.407.766.811C1229.657,447.271,1229.072,448.24,1228.67,448.233Z" transform="translate(-985.177 -53.16)" fill="#114e08"/>
  </g>
</svg>
